<svg xmlns="http://www.w3.org/2000/svg" viewBox="45.639 51.467 47.663 35.905" role="img" aria-labelledby="royalis-logo-title">
  <title id="royalis-logo-title">Royalis Labs</title>
  <g fill="#0096D7">
    <path d="M49.623 56.303 L49.754 56.303 C50.04 56.303 50.245 56.287 50.368 56.255 C50.492 56.222 50.607 56.156 50.716 56.054 C50.958 55.824 51.079 55.537 51.079 55.196 C51.079 55.014 51.044 54.842 50.974 54.682 C50.903 54.522 50.807 54.39 50.682 54.285 C50.585 54.207 50.47 54.153 50.336 54.121 C50.202 54.09 50.012 54.074 49.765 54.074 L49.623 54.074 Z M49.623 56.379 L49.623 57.604 C49.623 57.839 49.636 58.014 49.662 58.128 C49.689 58.242 49.738 58.336 49.81 58.41 C49.872 58.475 49.944 58.523 50.025 58.554 C50.107 58.585 50.216 58.604 50.35 58.612 L50.35 58.691 L48.139 58.691 L48.139 58.612 C48.272 58.604 48.38 58.585 48.462 58.554 C48.544 58.523 48.616 58.475 48.678 58.41 C48.752 58.336 48.802 58.243 48.827 58.13 C48.852 58.017 48.865 57.842 48.865 57.604 L48.865 55.054 C48.865 54.817 48.852 54.641 48.827 54.528 C48.802 54.415 48.752 54.322 48.678 54.247 C48.616 54.181 48.543 54.132 48.46 54.103 C48.377 54.073 48.269 54.054 48.139 54.047 L48.139 53.967 L49.806 53.967 C50.085 53.967 50.269 53.969 50.356 53.971 C50.714 53.987 50.994 54.035 51.197 54.116 C51.426 54.208 51.602 54.346 51.728 54.53 C51.854 54.713 51.917 54.926 51.917 55.168 C51.917 55.528 51.781 55.817 51.509 56.033 C51.426 56.098 51.334 56.151 51.233 56.193 C51.133 56.234 50.999 56.273 50.83 56.31 C50.969 56.367 51.071 56.428 51.139 56.49 C51.191 56.538 51.24 56.599 51.283 56.671 C51.327 56.744 51.394 56.873 51.48 57.058 C51.686 57.48 51.842 57.788 51.946 57.983 C52.051 58.178 52.14 58.32 52.211 58.407 C52.269 58.479 52.324 58.528 52.379 58.556 C52.433 58.583 52.508 58.602 52.602 58.612 L52.602 58.691 L51.453 58.691 C51.395 58.564 51.358 58.483 51.343 58.449 L51.101 57.899 C50.955 57.569 50.809 57.277 50.661 57.023 C50.513 56.772 50.378 56.6 50.256 56.507 C50.193 56.461 50.127 56.428 50.056 56.408 C49.983 56.389 49.896 56.379 49.792 56.379 Z" />
    <path d="M51.912 61.191 L51.912 61.108 C52.144 61.108 52.324 61.043 52.451 60.911 C52.523 60.837 52.572 60.743 52.599 60.629 C52.625 60.514 52.639 60.339 52.639 60.104 L52.639 57.554 C52.639 57.31 52.624 57.129 52.595 57.012 C52.566 56.896 52.513 56.801 52.434 56.727 C52.37 56.668 52.298 56.624 52.218 56.595 C52.139 56.568 52.036 56.552 51.912 56.547 L51.912 56.467 L54.123 56.467 L54.123 56.547 C53.996 56.554 53.892 56.572 53.811 56.599 C53.73 56.627 53.659 56.67 53.597 56.731 C53.518 56.807 53.466 56.903 53.437 57.018 C53.41 57.133 53.396 57.312 53.396 57.554 L53.396 59.55 C53.396 59.858 53.404 60.087 53.421 60.236 C53.436 60.386 53.468 60.508 53.514 60.603 C53.595 60.769 53.715 60.89 53.874 60.967 C54.033 61.045 54.244 61.084 54.507 61.084 C54.781 61.084 55.013 61.047 55.201 60.975 C55.389 60.902 55.543 60.79 55.663 60.637 C55.743 60.534 55.809 60.416 55.861 60.285 C55.913 60.153 55.961 59.98 56.005 59.765 L56.088 59.772 L56.043 61.191 Z" />
    <path d="M50.26 68.742 L51.321 68.742 C52.009 68.742 52.438 68.713 52.61 68.655 C52.781 68.596 52.915 68.496 53.011 68.354 C53.109 68.212 53.157 68.034 53.157 67.822 C53.157 67.582 53.093 67.389 52.966 67.242 C52.838 67.096 52.658 67.003 52.426 66.964 C52.309 66.948 51.96 66.94 51.379 66.94 L50.26 66.94 Z M48.826 72.84 L48.826 65.738 L51.844 65.738 C52.603 65.738 53.155 65.802 53.498 65.929 C53.843 66.057 54.117 66.284 54.324 66.61 C54.531 66.936 54.635 67.309 54.635 67.729 C54.635 68.262 54.478 68.702 54.164 69.05 C53.851 69.397 53.383 69.616 52.76 69.706 C53.07 69.887 53.325 70.085 53.528 70.302 C53.729 70.518 54.001 70.902 54.344 71.455 L55.211 72.84 L53.496 72.84 L52.459 71.295 C52.091 70.742 51.839 70.394 51.703 70.251 C51.568 70.107 51.424 70.009 51.272 69.955 C51.12 69.902 50.88 69.875 50.551 69.875 L50.26 69.875 L50.26 72.84 Z" />
    <path d="M57.173 69.285 C57.173 70.089 57.359 70.699 57.73 71.114 C58.101 71.529 58.573 71.736 59.145 71.736 C59.716 71.736 60.185 71.53 60.552 71.118 C60.919 70.707 61.102 70.089 61.102 69.265 C61.102 68.452 60.923 67.845 60.567 67.444 C60.21 67.044 59.736 66.843 59.145 66.843 C58.554 66.843 58.077 67.046 57.715 67.452 C57.354 67.857 57.173 68.468 57.173 69.285 M55.695 69.333 C55.695 68.61 55.804 68.003 56.02 67.512 C56.181 67.15 56.402 66.826 56.681 66.538 C56.961 66.251 57.267 66.037 57.599 65.899 C58.042 65.711 58.552 65.618 59.13 65.618 C60.176 65.618 61.014 65.942 61.642 66.592 C62.27 67.241 62.584 68.143 62.584 69.3 C62.584 70.446 62.273 71.343 61.649 71.99 C61.026 72.639 60.193 72.962 59.15 72.962 C58.093 72.962 57.254 72.639 56.631 71.996 C56.007 71.351 55.695 70.464 55.695 69.333" />
    <path d="M65.568 72.84 L65.568 69.851 L62.966 65.738 L64.648 65.738 L66.319 68.548 L67.956 65.738 L69.608 65.738 L66.997 69.861 L66.997 72.84 Z" />
    <path d="M73.173 70.031 L72.194 67.396 L71.236 70.031 Z M75.814 72.841 L74.253 72.841 L73.634 71.227 L70.795 71.227 L70.208 72.841 L68.687 72.841 L71.453 65.739 L72.97 65.739 Z" />
    <path d="M76.613 72.84 L76.613 65.796 L78.047 65.796 L78.047 71.643 L81.613 71.643 L81.613 72.84 Z" />
    <path d="M82.591 65.738 L84.025 65.738 L84.025 72.84 L82.591 72.84 Z" />
    <path d="M85.028 70.53 L86.424 70.394 C86.507 70.863 86.677 71.206 86.934 71.426 C87.191 71.646 87.537 71.756 87.973 71.756 C88.435 71.756 88.783 71.658 89.017 71.462 C89.252 71.267 89.369 71.038 89.369 70.777 C89.369 70.609 89.32 70.466 89.22 70.348 C89.123 70.23 88.951 70.128 88.705 70.041 C88.537 69.982 88.154 69.879 87.556 69.731 C86.789 69.54 86.249 69.306 85.939 69.028 C85.503 68.637 85.285 68.161 85.285 67.599 C85.285 67.238 85.387 66.899 85.592 66.584 C85.798 66.269 86.093 66.03 86.479 65.864 C86.865 65.7 87.331 65.617 87.877 65.617 C88.767 65.617 89.439 65.813 89.889 66.204 C90.34 66.594 90.576 67.116 90.599 67.768 L89.166 67.831 C89.103 67.467 88.972 67.204 88.77 67.044 C88.568 66.884 88.265 66.804 87.862 66.804 C87.445 66.804 87.119 66.89 86.883 67.061 C86.732 67.171 86.656 67.318 86.656 67.502 C86.656 67.67 86.726 67.814 86.869 67.933 C87.05 68.085 87.489 68.243 88.187 68.408 C88.884 68.572 89.4 68.743 89.734 68.919 C90.068 69.095 90.33 69.336 90.519 69.641 C90.709 69.946 90.802 70.323 90.802 70.772 C90.802 71.179 90.689 71.56 90.464 71.915 C90.238 72.271 89.918 72.535 89.504 72.707 C89.091 72.881 88.576 72.967 87.959 72.967 C87.061 72.967 86.372 72.759 85.89 72.343 C85.41 71.929 85.122 71.324 85.028 70.53" />
    <path d="M56.95 84.746 L56.95 77.702 L58.384 77.702 L58.384 83.549 L61.949 83.549 L61.949 84.746 Z" />
    <path d="M66.736 81.936 L65.757 79.3 L64.799 81.936 Z M69.376 84.746 L67.817 84.746 L67.196 83.132 L64.358 83.132 L63.771 84.746 L62.25 84.746 L65.016 77.644 L66.532 77.644 Z" />
    <path d="M71.575 81.65 L71.575 83.548 L72.902 83.548 C73.419 83.548 73.747 83.535 73.886 83.505 C74.099 83.466 74.273 83.373 74.407 83.222 C74.54 83.072 74.608 82.871 74.608 82.619 C74.608 82.406 74.556 82.225 74.452 82.076 C74.349 81.927 74.2 81.82 74.004 81.752 C73.809 81.684 73.385 81.65 72.733 81.65 Z M71.575 78.826 L71.575 80.468 L72.515 80.468 C73.074 80.468 73.421 80.461 73.556 80.444 C73.802 80.415 73.995 80.33 74.135 80.189 C74.276 80.048 74.346 79.865 74.346 79.634 C74.346 79.416 74.285 79.237 74.164 79.099 C74.043 78.962 73.863 78.879 73.624 78.85 C73.482 78.834 73.074 78.826 72.398 78.826 Z M70.141 77.644 L72.98 77.644 C73.542 77.644 73.96 77.668 74.238 77.714 C74.513 77.761 74.76 77.859 74.978 78.007 C75.197 78.156 75.378 78.353 75.523 78.601 C75.668 78.847 75.742 79.125 75.742 79.431 C75.742 79.764 75.652 80.07 75.472 80.347 C75.292 80.625 75.05 80.834 74.743 80.972 C75.176 81.097 75.509 81.312 75.742 81.617 C75.974 81.92 76.089 82.277 76.089 82.687 C76.089 83.009 76.015 83.324 75.865 83.629 C75.714 83.934 75.509 84.178 75.249 84.361 C74.99 84.543 74.669 84.656 74.288 84.697 C74.048 84.723 73.472 84.74 72.558 84.746 L70.141 84.746 Z" />
    <path d="M76.938 82.435 L78.334 82.299 C78.417 82.767 78.587 83.111 78.844 83.331 C79.101 83.55 79.447 83.661 79.883 83.661 C80.345 83.661 80.693 83.563 80.927 83.367 C81.162 83.171 81.279 82.943 81.279 82.682 C81.279 82.514 81.23 82.371 81.13 82.253 C81.033 82.135 80.861 82.033 80.615 81.946 C80.447 81.887 80.064 81.785 79.466 81.636 C78.699 81.445 78.159 81.21 77.849 80.933 C77.413 80.542 77.195 80.066 77.195 79.503 C77.195 79.142 77.297 78.804 77.502 78.49 C77.708 78.174 78.003 77.935 78.389 77.769 C78.775 77.605 79.241 77.523 79.787 77.523 C80.677 77.523 81.349 77.718 81.799 78.109 C82.25 78.499 82.486 79.021 82.509 79.673 L81.076 79.736 C81.013 79.372 80.882 79.109 80.68 78.949 C80.478 78.789 80.175 78.709 79.772 78.709 C79.355 78.709 79.029 78.794 78.793 78.966 C78.642 79.076 78.566 79.223 78.566 79.408 C78.566 79.576 78.636 79.718 78.779 79.838 C78.96 79.99 79.399 80.148 80.097 80.313 C80.794 80.478 81.31 80.648 81.644 80.824 C81.978 80.999 82.24 81.241 82.429 81.546 C82.619 81.851 82.712 82.228 82.712 82.677 C82.712 83.083 82.599 83.465 82.374 83.82 C82.148 84.175 81.828 84.439 81.414 84.613 C81.001 84.785 80.486 84.872 79.869 84.872 C78.971 84.872 78.282 84.664 77.8 84.249 C77.32 83.833 77.032 83.23 76.938 82.435" />
  </g>
</svg>
